<svg width="136" height="136" viewBox="0 0 136 136" fill="none" xmlns="http://www.w3.org/2000/svg">
<circle cx="68" cy="68" r="68" fill="#0E3452"/>
<path opacity="0.03" fill-rule="evenodd" clip-rule="evenodd" d="M68 128.229C101.263 128.229 128.229 101.263 128.229 68C128.229 34.7367 101.263 7.77143 68 7.77143C34.7367 7.77143 7.77143 34.7367 7.77143 68C7.77143 101.263 34.7367 128.229 68 128.229ZM68 136C105.555 136 136 105.555 136 68C136 30.4446 105.555 0 68 0C30.4446 0 0 30.4446 0 68C0 105.555 30.4446 136 68 136Z" fill="#82BAF6"/>
<path opacity="0.3" fill-rule="evenodd" clip-rule="evenodd" d="M130.171 68C130.171 102.336 102.336 130.171 68 130.171C33.6637 130.171 5.82861 102.336 5.82861 68C5.82861 33.6637 33.6637 5.82861 68 5.82861C102.336 5.82861 130.171 33.6637 130.171 68ZM68 128.229C101.263 128.229 128.229 101.263 128.229 68C128.229 34.7367 101.263 7.77147 68 7.77147C34.7367 7.77147 7.77147 34.7367 7.77147 68C7.77147 101.263 34.7367 128.229 68 128.229Z" fill="#0B1923"/>
<g clip-path="url(#clip0_1_1942)">
<path d="M42.0266 100.155C38.7133 100.155 35.5124 100.155 31.877 100.155C34.3672 97.5655 36.6141 95.2302 38.8594 92.8932C43.9662 87.5774 49.0033 82.1925 54.1952 76.961C61.5676 69.5327 73.1873 69.1926 81.1397 76.0504C81.7954 76.6158 82.4153 77.2271 83.0149 77.8526C90.0418 85.1803 97.0615 92.5149 104.299 100.073C100.788 100.073 97.5541 100.073 95.2069 100.073C91.2072 96.3822 87.5596 93.1221 84.0386 89.7305C81.5871 87.3691 79.3845 84.7495 76.9384 82.3816C71.7757 77.3842 63.8145 77.6212 58.7556 82.8553C53.5467 88.2447 48.3648 93.6603 43.1673 99.0607C42.7842 99.4589 42.3701 99.8272 42.0266 100.155ZM33.352 38.2311C40.0741 45.2589 46.7993 52.2836 53.5233 59.3095C61.7285 67.8829 74.7046 67.7614 82.9541 59.0828C89.1839 52.5291 95.4751 46.0336 101.732 39.506C102.428 38.78 103.081 38.0127 103.981 37.0122C100.227 37.0122 96.9034 37.0122 94.8145 37.0122C91.2791 40.2178 88.3568 42.7234 85.6048 45.4039C82.8557 48.0813 80.3027 50.9587 77.6186 53.7044C71.9343 59.5191 63.9581 59.3923 58.3922 53.5147C53.156 47.9853 47.8422 42.5296 42.5425 37.0206C39.2481 37.0206 35.9702 37.0206 32.2941 37.0206C32.806 37.6083 33.066 37.9321 33.352 38.2311Z" fill="#82BAF6"/>
</g>
<defs>
<clipPath id="clip0_1_1942">
<rect width="73.8286" height="73.8286" fill="white" transform="translate(31.0857 31.0857)"/>
</clipPath>
</defs>
</svg>
