<svg width="70" height="70" viewBox="0 0 70 70" fill="none" xmlns="http://www.w3.org/2000/svg">
<circle cx="35" cy="35" r="35" fill="#0E3452"/>
<path opacity="0.03" fill-rule="evenodd" clip-rule="evenodd" d="M35 66C52.1208 66 66 52.1208 66 35C66 17.8792 52.1208 4 35 4C17.8792 4 4 17.8792 4 35C4 52.1208 17.8792 66 35 66ZM35 70C54.33 70 70 54.33 70 35C70 15.67 54.33 0 35 0C15.67 0 0 15.67 0 35C0 54.33 15.67 70 35 70Z" fill="#03CA9B"/>
<path opacity="0.3" fill-rule="evenodd" clip-rule="evenodd" d="M67 35C67 52.6731 52.6731 67 35 67C17.3269 67 3 52.6731 3 35C3 17.3269 17.3269 3 35 3C52.6731 3 67 17.3269 67 35ZM35 66C52.1208 66 66 52.1208 66 35C66 17.8792 52.1208 4 35 4C17.8792 4 4 17.8792 4 35C4 52.1208 17.8792 66 35 66Z" fill="#0B1923"/>
<path d="M36.7525 31.9987C38.4674 31.3967 40.0613 30.7985 41.7513 30.1316C41.6043 30.7151 41.4854 31.1922 41.3637 31.6687C41.1192 32.6259 40.861 33.5799 40.6363 34.5418C40.5834 34.7683 40.4519 34.8582 40.2771 34.9278C39.8088 35.114 39.3392 35.2972 38.8654 35.4689C37.9199 35.8116 36.9734 36.1516 36.0231 36.4809C35.6829 36.5988 35.4806 36.7622 35.3851 37.16C35.0072 38.7336 34.569 40.2927 34.1572 41.8581C33.8826 42.9018 33.6194 43.9486 33.3412 44.9912C33.2466 45.3454 33.1216 45.6914 32.9776 46.1451C33.9296 46.1701 34.788 46.1554 35.6456 46.1579C36.5331 46.1606 37.4206 46.1585 38.3081 46.1585C39.1767 46.1585 40.0454 46.1585 40.914 46.1585C41.8016 46.1585 42.6891 46.1585 43.5766 46.1585C44.4452 46.1585 45.3139 46.1585 46.1825 46.1585C47.07 46.1585 47.9576 46.1585 48.8451 46.1585C49.7098 46.1585 50.5745 46.1585 51.5155 46.1585C51.2544 47.0942 51.0025 47.9606 50.7722 48.8327C50.5863 49.5366 50.4299 50.2482 50.254 50.9547C50.1055 51.5513 49.9569 52.1481 49.7855 52.7381C49.7571 52.836 49.623 52.9384 49.5174 52.9697C49.3778 53.0111 49.2182 52.9864 49.0672 52.9864C39.5689 52.9867 30.0706 52.9867 20.5722 52.9867C20.3896 52.9867 20.2069 52.9867 19.9755 52.9867C20.9915 49.1071 21.9877 45.3025 23.0006 41.4348C22.2245 41.5034 21.565 41.8934 20.8628 42.1355C20.1468 42.3825 19.4388 42.6526 18.6499 42.941C18.9069 42.021 19.1365 41.2067 19.3613 40.391C19.5294 39.7815 19.7013 39.1728 19.8512 38.5587C19.9109 38.314 20.0165 38.2037 20.2739 38.1169C21.2958 37.7727 22.3008 37.3786 23.3118 37.0026C23.5059 36.9304 23.7022 36.8632 23.8925 36.7818C24.1794 36.6589 24.3445 36.4801 24.4272 36.1344C24.8659 34.3018 25.3469 32.4794 25.8222 30.6557C26.1804 29.2815 26.5572 27.9122 26.9164 26.5382C27.3068 25.045 27.6737 23.5455 28.0745 22.0551C28.4035 20.8317 28.7711 19.6187 29.1135 18.3988C29.2285 17.9893 29.3185 17.5727 29.4207 17.156C33.1782 17.156 36.885 17.156 40.6503 17.156C39.3547 22.0887 38.074 26.9662 36.7525 31.9987Z" fill="#03CA9B"/>
</svg>
