<svg width="133" height="133" viewBox="0 0 133 133" fill="none" xmlns="http://www.w3.org/2000/svg">
<circle cx="66.5" cy="66.5" r="66.5" fill="#0E3452"/>
<path opacity="0.03" fill-rule="evenodd" clip-rule="evenodd" d="M66.5 125.4C99.0296 125.4 125.4 99.0296 125.4 66.5C125.4 33.9704 99.0296 7.6 66.5 7.6C33.9704 7.6 7.6 33.9704 7.6 66.5C7.6 99.0296 33.9704 125.4 66.5 125.4ZM66.5 133C103.227 133 133 103.227 133 66.5C133 29.7731 103.227 0 66.5 0C29.7731 0 0 29.7731 0 66.5C0 103.227 29.7731 133 66.5 133Z" fill="#03CA9B"/>
<path opacity="0.3" fill-rule="evenodd" clip-rule="evenodd" d="M127.3 66.5C127.3 100.079 100.079 127.3 66.5 127.3C32.921 127.3 5.69995 100.079 5.69995 66.5C5.69995 32.921 32.921 5.69995 66.5 5.69995C100.079 5.69995 127.3 32.921 127.3 66.5ZM66.5 125.4C99.0295 125.4 125.4 99.0295 125.4 66.5C125.4 33.9704 99.0295 7.59995 66.5 7.59995C33.9704 7.59995 7.59995 33.9704 7.59995 66.5C7.59995 99.0295 33.9704 125.4 66.5 125.4Z" fill="#0B1923"/>
<g clip-path="url(#clip0_1_1937)">
<path fill-rule="evenodd" clip-rule="evenodd" d="M86.0484 68.5504C89.9722 67.5623 92.4304 65.0854 93.4693 61.1379C94.8138 56.0299 93.4401 52.0326 89.2034 48.921C86.9767 47.2855 84.4779 46.1846 81.8968 45.2637C81.4041 45.088 81.2925 44.8736 81.412 44.4118C81.8578 42.6863 82.2932 40.9582 82.7261 39.2296C82.9787 38.2202 83.2271 37.2098 83.4817 36.1742C83.5971 35.7045 83.7139 35.2295 83.8329 34.7472L77.6176 33.1997L75.1136 43.206L70.0723 42.0076L72.5745 31.9402L66.3946 30.3999C66.3631 30.4936 66.3331 30.5777 66.3053 30.6558C66.2516 30.8064 66.2059 30.9346 66.1731 31.0661C66.0145 31.7006 65.8554 32.3349 65.6963 32.9692C65.1086 35.3116 64.521 37.654 63.9623 40.0033C63.8291 40.5634 63.6437 40.6609 63.1023 40.518C61.4058 40.0704 59.7016 39.6517 57.9976 39.2331C57.537 39.12 57.0765 39.0069 56.6162 38.8932C55.3446 38.579 54.0724 38.2681 52.7831 37.953C52.2453 37.8216 51.7046 37.6894 51.1597 37.556L49.5049 44.1846C49.6819 44.2276 49.8547 44.268 50.0242 44.3076C50.383 44.3914 50.7276 44.4719 51.0683 44.5669C51.4568 44.6754 51.8487 44.7758 52.2406 44.8763C53.2227 45.1281 54.2053 45.3799 55.1359 45.7587C56.6176 46.362 57.2259 47.8726 56.8422 49.4189C56.5171 50.7293 56.1924 52.0398 55.8677 53.3502C55.1776 56.1357 54.4874 58.9211 53.7933 61.7056C53.3872 63.3345 52.9785 64.9629 52.5698 66.5912C51.7091 70.0203 50.8484 73.4493 50.0118 76.8842C49.7371 78.0119 48.4943 79.0788 47.1671 78.693C46.106 78.3844 45.0243 78.1461 43.9315 77.9053C43.4537 77.8 42.9737 77.6942 42.4924 77.5819L39.4248 84.6531L52.0296 87.8418L49.4453 98.2557L55.6267 99.7913C55.6588 99.6722 55.6882 99.5648 55.7156 99.4651C55.7687 99.2715 55.8138 99.1066 55.8555 98.9409C56.0041 98.349 56.1529 97.7572 56.3017 97.1654C56.8938 94.8109 57.4858 92.4566 58.0644 90.0989C58.1542 89.7337 58.2567 89.5006 58.6822 89.6141C59.8413 89.9229 61.0007 90.2308 62.2047 90.5505C62.5457 90.6411 62.8902 90.7326 63.2393 90.8253L60.7033 101.064L66.8718 102.6C66.9019 102.511 66.931 102.43 66.9583 102.354C67.0123 102.203 67.0591 102.073 67.0923 101.939C67.2402 101.346 67.3883 100.753 67.5365 100.16C68.138 97.7537 68.7395 95.347 69.3167 92.9345C69.4496 92.3788 69.6538 92.1921 70.2271 92.3343C70.6386 92.4365 71.0609 92.4943 71.4832 92.552C71.686 92.5798 71.8888 92.6075 72.0904 92.6401C75.3078 93.1606 78.5343 93.3502 81.7588 92.7524C84.6705 92.2126 87.1626 90.9092 89.0292 88.54C91.0367 85.9918 92.0688 83.0557 92.5104 79.8789C92.9633 76.6197 92.1409 73.7441 89.7552 71.4521C88.9844 70.7117 88.1134 70.0755 87.2378 69.4359C86.8393 69.1448 86.4399 68.8531 86.0484 68.5504ZM68.4044 62.7319C71.1767 63.3878 73.9633 63.894 76.8305 63.4325C80.986 62.7637 82.2146 59.1039 81.5197 56.4378C81.0297 54.5575 79.6415 53.3858 78.0214 52.4635C75.4952 51.0252 72.71 50.3778 69.9251 49.7305C69.571 49.6482 69.2162 49.5657 68.8627 49.4818C68.3864 49.3688 68.3026 49.6712 68.2138 50.039C67.9634 51.0777 67.7027 52.114 67.4421 53.1503C67.3004 53.7136 67.1587 54.2768 67.0187 54.8405C66.6192 56.4478 66.2215 58.0555 65.8173 59.6893L65.2637 61.9263C65.6229 62.0188 65.9704 62.1102 66.3104 62.1995C67.0297 62.3886 67.7151 62.5687 68.4044 62.7319ZM62.5681 72.7018C61.8287 75.6527 61.0892 78.6036 60.3433 81.5529C60.2305 81.999 60.4226 82.0778 60.8008 82.1602C61.6724 82.3498 62.5413 82.5548 63.41 82.7597C65.0417 83.1446 66.6731 83.5294 68.3221 83.8126C70.582 84.2005 72.8804 84.2573 75.156 83.7278C79.6334 82.6858 80.9283 77.6949 78.7073 74.6786C77.6653 73.2633 76.2534 72.3046 74.7019 71.5366C71.6246 70.013 68.3157 69.2545 65.0156 68.4981C64.601 68.4031 64.1866 68.3081 63.7727 68.2116C63.7538 68.2352 63.7353 68.255 63.7188 68.2726C63.6881 68.3053 63.6643 68.3308 63.6569 68.3602C63.2939 69.8054 62.9317 71.2508 62.5696 72.6961L62.5681 72.7018Z" fill="#03CA9B"/>
</g>
<defs>
<clipPath id="clip0_1_1937">
<rect width="72.2" height="72.2" fill="white" transform="translate(30.3999 30.3999)"/>
</clipPath>
</defs>
</svg>
