<svg width="65" height="65" viewBox="0 0 65 65" fill="none" xmlns="http://www.w3.org/2000/svg">
<circle cx="32.5" cy="32.5" r="32.5" fill="#0E3452"/>
<path opacity="0.03" fill-rule="evenodd" clip-rule="evenodd" d="M32.5 61.2857C48.3979 61.2857 61.2857 48.3979 61.2857 32.5C61.2857 16.6021 48.3979 3.71429 32.5 3.71429C16.6021 3.71429 3.71429 16.6021 3.71429 32.5C3.71429 48.3979 16.6021 61.2857 32.5 61.2857ZM32.5 65C50.4493 65 65 50.4493 65 32.5C65 14.5507 50.4493 0 32.5 0C14.5507 0 0 14.5507 0 32.5C0 50.4493 14.5507 65 32.5 65Z" fill="#03CA9B"/>
<path opacity="0.3" fill-rule="evenodd" clip-rule="evenodd" d="M62.2142 32.4999C62.2142 48.9107 48.9107 62.2142 32.4999 62.2142C16.0892 62.2142 2.78564 48.9107 2.78564 32.4999C2.78564 16.0892 16.0892 2.78564 32.4999 2.78564C48.9107 2.78564 62.2142 16.0892 62.2142 32.4999ZM32.4999 61.2856C48.3978 61.2856 61.2856 48.3978 61.2856 32.4999C61.2856 16.602 48.3978 3.71422 32.4999 3.71422C16.602 3.71422 3.71422 16.602 3.71422 32.4999C3.71422 48.3978 16.602 61.2856 32.4999 61.2856Z" fill="#0B1923"/>
<path d="M32.113 49.7731C32.0172 49.7019 31.9271 49.621 31.8248 49.5608C28.4182 47.5569 25.0104 45.5551 21.6031 43.5524C21.5079 43.4965 21.4163 43.4345 21.2553 43.3323C24.2784 43.3323 27.2231 43.3323 30.2002 43.3323C30.8594 45.476 31.52 47.6246 32.1807 49.7731C32.1581 49.7731 32.1355 49.7731 32.113 49.7731ZM32.5185 22.8928C30.7332 26.0341 28.9864 29.1076 27.2398 32.1808C28.3486 35.7234 29.4533 39.2532 30.5509 42.7602C31.9097 42.7602 33.2139 42.7602 34.5293 42.7602C35.6331 39.2305 36.7315 35.7181 37.838 32.1795C36.0663 29.0864 34.3068 26.0148 32.5185 22.8928ZM32.8154 15.1321C32.8059 15.3029 32.8004 15.3569 32.8003 15.4108C32.7996 17.6199 32.7959 19.829 32.8058 22.0381C32.8065 22.2062 32.8751 22.3899 32.9598 22.5394C34.5857 25.4097 36.2187 28.2759 37.8508 31.1427C37.9049 31.2379 37.9643 31.33 38.0476 31.4671C38.7328 29.2567 39.4017 27.0986 40.0768 24.9206C37.6655 21.6701 35.2699 18.4408 32.8154 15.1321ZM32.1875 15.2332C29.7909 18.4648 27.3942 21.6964 24.9745 24.9592C25.6515 27.1022 26.3313 29.2539 27.0301 31.4657C27.1254 31.3116 27.1855 31.221 27.2392 31.1267C28.8617 28.2774 30.4863 25.4293 32.099 22.5745C32.2033 22.3899 32.2598 22.1531 32.2616 21.94C32.2752 20.282 32.27 18.6238 32.2705 16.9657C32.2706 16.3944 32.2705 15.8232 32.2705 15.2519C32.2428 15.2456 32.2152 15.2394 32.1875 15.2332ZM26.8723 32.7927C24.9767 36.1454 23.1159 39.4364 21.2298 42.7724C24.1971 42.7724 27.0797 42.7724 30.0217 42.7724C28.9703 39.441 27.9327 36.1529 26.8723 32.7927ZM38.1651 32.793C37.1181 36.156 36.0932 39.4478 35.0591 42.7695C38.0019 42.7695 40.8856 42.7695 43.8478 42.7695C41.9464 39.4313 40.0721 36.1409 38.1651 32.793ZM32.8876 49.7736C36.557 47.6098 40.1383 45.4979 43.7196 43.386C43.7112 43.3655 43.7029 43.3449 43.6945 43.3243C40.7773 43.3243 37.8601 43.3243 34.8868 43.3243C34.229 45.4464 33.5718 47.5662 32.8876 49.7736ZM21.0722 41.9322C22.9364 38.6561 24.8007 35.3801 26.6687 32.0973C26.0129 30.0107 25.3607 27.9355 24.7085 25.8603C24.6822 25.8611 24.6559 25.8619 24.6296 25.8627C23.4189 31.2111 22.2082 36.5596 20.9976 41.908C21.0225 41.9161 21.0473 41.9242 21.0722 41.9322ZM43.9696 41.9356C43.9929 41.9251 44.0163 41.9146 44.0396 41.9041C42.8292 36.5571 41.6187 31.2101 40.4083 25.8631C40.3819 25.8637 40.3554 25.8643 40.329 25.8649C39.6914 27.9358 39.0537 30.0067 38.4098 32.0978C40.2706 35.3904 42.1201 38.663 43.9696 41.9356ZM32.4793 48.9479C32.5059 48.9481 32.5325 48.9484 32.5591 48.9487C33.1542 47.085 33.7494 45.2214 34.3545 43.3266C33.1386 43.3266 31.9626 43.3266 30.7246 43.3266C31.3192 45.2313 31.8992 47.0896 32.4793 48.9479Z" fill="#03CA9B"/>
</svg>
