<svg width="103" height="103" viewBox="0 0 103 103" fill="none" xmlns="http://www.w3.org/2000/svg">
<circle cx="51.5" cy="51.5" r="51.5" fill="#0E3452"/>
<path opacity="0.03" fill-rule="evenodd" clip-rule="evenodd" d="M51.5 97.1143C76.6921 97.1143 97.1143 76.6921 97.1143 51.5C97.1143 26.3079 76.6921 5.88571 51.5 5.88571C26.3079 5.88571 5.88571 26.3079 5.88571 51.5C5.88571 76.6921 26.3079 97.1143 51.5 97.1143ZM51.5 103C79.9427 103 103 79.9427 103 51.5C103 23.0573 79.9427 0 51.5 0C23.0573 0 0 23.0573 0 51.5C0 79.9427 23.0573 103 51.5 103Z" fill="#82BAF6"/>
<path opacity="0.3" fill-rule="evenodd" clip-rule="evenodd" d="M98.5857 51.5C98.5857 77.5047 77.5047 98.5857 51.5 98.5857C25.4953 98.5857 4.41431 77.5047 4.41431 51.5C4.41431 25.4953 25.4953 4.41431 51.5 4.41431C77.5047 4.41431 98.5857 25.4953 98.5857 51.5ZM51.5 97.1143C76.6921 97.1143 97.1143 76.6921 97.1143 51.5C97.1143 26.3079 76.6921 5.88574 51.5 5.88574C26.3079 5.88574 5.88574 26.3079 5.88574 51.5C5.88574 76.6921 26.3079 97.1143 51.5 97.1143Z" fill="#0B1923"/>
<path d="M51.7956 24.6582C52.9531 26.5749 54.0652 28.4137 55.1747 30.254C59.4915 37.4131 63.7982 44.5785 68.1395 51.7227C68.5502 52.3986 68.4409 52.6445 67.7794 53.0297C62.6104 56.0392 57.4669 59.0921 52.3231 62.1446C51.9977 62.3377 51.7614 62.462 51.3774 62.2337C46.0519 59.0672 40.7156 55.9188 35.3828 52.7644C35.2747 52.7004 35.1761 52.6204 35.0127 52.5054C40.5933 43.2458 46.1658 33.9995 51.7956 24.6582ZM68.4957 54.9012C68.2776 54.8647 68.1483 54.9204 68.0281 54.9914C62.8869 58.0304 57.7407 61.0612 52.6136 64.1236C52.0035 64.4881 51.5686 64.5402 50.9165 64.1484C45.9547 61.1677 40.9612 58.2395 35.977 55.2959C35.7528 55.1635 35.5231 55.0401 35.296 54.9126C35.2663 54.9557 35.2366 54.9987 35.2069 55.0418C40.7209 62.8122 46.2349 70.5826 51.7983 78.4226C57.3914 70.5436 62.9436 62.7224 68.4957 54.9012Z" fill="#82BAF6"/>
</svg>
