<svg width="72" height="72" viewBox="0 0 72 72" fill="none" xmlns="http://www.w3.org/2000/svg">
<circle cx="36" cy="36" r="36" fill="#0E3452"/>
<path opacity="0.03" fill-rule="evenodd" clip-rule="evenodd" d="M36 67.8857C53.61 67.8857 67.8857 53.61 67.8857 36C67.8857 18.39 53.61 4.11429 36 4.11429C18.39 4.11429 4.11429 18.39 4.11429 36C4.11429 53.61 18.39 67.8857 36 67.8857ZM36 72C55.8823 72 72 55.8823 72 36C72 16.1177 55.8823 0 36 0C16.1177 0 0 16.1177 0 36C0 55.8823 16.1177 72 36 72Z" fill="#82BAF6"/>
<path opacity="0.3" fill-rule="evenodd" clip-rule="evenodd" d="M68.9143 36C68.9143 54.178 54.178 68.9143 36 68.9143C17.8219 68.9143 3.08569 54.178 3.08569 36C3.08569 17.8219 17.8219 3.08569 36 3.08569C54.178 3.08569 68.9143 17.8219 68.9143 36ZM36 67.8857C53.61 67.8857 67.8857 53.61 67.8857 36C67.8857 18.39 53.61 4.11426 36 4.11426C18.39 4.11426 4.11426 18.39 4.11426 36C4.11426 53.61 18.39 67.8857 36 67.8857Z" fill="#0B1923"/>
<g clip-path="url(#clip0_1_1941)">
<path d="M36.0334 36.1445C40.84 36.1445 44.8576 35.3213 45.8408 34.2221C45.007 33.2899 41.9912 32.5562 38.1626 32.3548V34.677C37.4763 34.7131 36.7639 34.7321 36.0334 34.7321C35.3028 34.7321 34.5904 34.7131 33.9042 34.677V32.3548C30.0755 32.5562 27.0597 33.2899 26.2259 34.2221C27.2091 35.3213 31.2267 36.1445 36.0334 36.1445Z" fill="#82BAF6"/>
<path fill-rule="evenodd" clip-rule="evenodd" d="M24.9694 20.1213H47.4824C48.0196 20.1213 48.5158 20.4084 48.7837 20.8741L55.3427 32.2752C55.6828 32.8665 55.5818 33.6127 55.0966 34.0922L37.0429 51.9336C36.4581 52.5115 35.5173 52.5115 34.9325 51.9336L16.9032 34.1163C16.4067 33.6257 16.3138 32.8576 16.6788 32.2627L23.6898 20.8375C23.9629 20.3925 24.4474 20.1213 24.9694 20.1213ZM44.5756 25.2116V28.4105H38.1626V30.6285C42.6666 30.8655 46.0459 31.839 46.071 33.0058L46.0708 35.4383C46.0457 36.6051 42.6666 37.5786 38.1626 37.8156V43.2587H33.9042V37.8156C29.4001 37.5786 26.0208 36.6051 25.9958 35.4383L25.9959 33.0058C26.021 31.839 29.4001 30.8655 33.9042 30.6285V28.4105H27.4911V25.2116H44.5756Z" fill="#82BAF6"/>
</g>
<defs>
<clipPath id="clip0_1_1941">
<rect width="39.0857" height="39.0857" fill="white" transform="translate(16.457 16.457)"/>
</clipPath>
</defs>
</svg>
