<svg width="198" height="24" viewBox="0 0 198 24" fill="none" xmlns="http://www.w3.org/2000/svg">
<path d="M169.725 23.5942C169.871 23.747 169.762 23.9999 169.551 23.9999H164.288C164.222 23.9999 164.159 23.9727 164.114 23.9248L157.118 16.5246L150.046 23.9257C150.001 23.9731 149.938 23.9999 149.872 23.9999H144.609C144.398 23.9999 144.289 23.747 144.435 23.5942L154.078 13.4887L144.762 3.6691C144.617 3.51619 144.725 3.26392 144.936 3.26392H150.201C150.267 3.26392 150.33 3.29126 150.375 3.33947L157.067 10.4528L163.785 3.33914C163.83 3.29113 163.893 3.26392 163.959 3.26392H169.224C169.435 3.26392 169.543 3.51619 169.398 3.6691L160.081 13.4887L169.725 23.5942Z" fill="white"/>
<path d="M119.827 23.9996C119.643 23.9996 119.494 23.8504 119.494 23.6665V3.59783C119.494 3.41384 119.643 3.26469 119.827 3.26469H139.712C139.896 3.26469 140.045 3.41384 140.045 3.59783V6.46773C140.045 6.65172 139.896 6.80087 139.712 6.80087H124.316V11.422H133.547C133.731 11.422 133.88 11.5712 133.88 11.7552V14.6251C133.88 14.8091 133.731 14.9582 133.547 14.9582H124.316V20.1018H139.913C140.097 20.1018 140.246 20.2509 140.246 20.4349V23.6665C140.246 23.8504 140.097 23.9996 139.913 23.9996H119.827Z" fill="white"/>
<path d="M84.617 23.9996C84.433 23.9996 84.2839 23.8504 84.2839 23.6665V3.59783C84.2839 3.41384 84.433 3.26469 84.617 3.26469H88.7728C88.9568 3.26469 89.1059 3.41384 89.1059 3.59783V23.6665C89.1059 23.8504 88.9568 23.9996 88.7728 23.9996H84.617Z" fill="white"/>
<path d="M60.9759 23.9996C60.7919 23.9996 60.6427 23.8504 60.6427 23.6665V3.59783C60.6427 3.41384 60.7919 3.26469 60.9759 3.26469H80.6193C80.8033 3.26469 80.9524 3.41384 80.9524 3.59783V6.5481C80.9524 6.73209 80.8033 6.88124 80.6193 6.88124H65.4648V12.3463H73.8516C74.0355 12.3463 74.1847 12.4954 74.1847 12.6794V15.7904C74.1847 15.9744 74.0355 16.1235 73.8516 16.1235H65.4648V23.6665C65.4648 23.8504 65.3157 23.9996 65.1317 23.9996H60.9759Z" fill="white"/>
<path d="M48.0807 6.96161V23.6665C48.0807 23.8504 47.9315 23.9996 47.7476 23.9996H43.5918C43.4078 23.9996 43.2586 23.8504 43.2586 23.6665V6.96161H34.4013C34.2173 6.96161 34.0682 6.81245 34.0682 6.62846V3.59783C34.0682 3.41384 34.2173 3.26469 34.4013 3.26469H56.9782C57.1622 3.26469 57.3113 3.41384 57.3113 3.59783V6.62846C57.3113 6.81245 57.1622 6.96161 56.9782 6.96161H48.0807Z" fill="white"/>
<path d="M26.2478 23.9996C26.0639 23.9996 25.9147 23.8504 25.9147 23.6665V3.59783C25.9147 3.41384 26.0639 3.26469 26.2478 3.26469H30.4036C30.5876 3.26469 30.7368 3.41384 30.7368 3.59783V23.6665C30.7368 23.8504 30.5876 23.9996 30.4036 23.9996H26.2478Z" fill="white"/>
<path fill-rule="evenodd" clip-rule="evenodd" d="M0 3.59783C0 3.41384 0.149152 3.26469 0.333141 3.26469H18.0906C20.4825 3.26469 22.4214 5.20367 22.4214 7.59552V8.97965C22.4214 11.3715 20.4825 13.3105 18.0906 13.3105H18.2525C20.6443 13.3105 22.5833 15.2495 22.5833 17.6413V19.6691C22.5833 22.0609 20.6443 23.9999 18.2525 23.9999H0.333141C0.149153 23.9999 0 23.8508 0 23.6668V3.59783ZM4.73873 6.64089H15.9624C17.0663 6.64089 17.9612 7.5358 17.9612 8.63973V9.58402C17.9612 10.6879 17.0663 11.5829 15.9624 11.5829H4.73873V6.64089ZM4.73873 14.9967H16.0828C17.1868 14.9967 18.0817 15.8916 18.0817 16.9956V18.2635C18.0817 19.3675 17.1868 20.2624 16.0828 20.2624H4.73873V14.9967Z" fill="white"/>
<path d="M92.4373 23.6664V3.59783C92.4373 3.41384 92.5865 3.26469 92.7705 3.26469H95.6062C95.6875 3.26469 95.766 3.29445 95.827 3.34837L111.823 17.5065L111.823 3.59783C111.823 3.41384 111.972 3.26469 112.156 3.26469H115.83C116.014 3.26469 116.163 3.41384 116.163 3.59783V23.6664C116.163 23.8504 116.014 23.9996 115.83 23.9996H112.994C112.913 23.9996 112.834 23.9697 112.773 23.9156L96.7772 9.72058L96.7772 23.6664C96.7772 23.8504 96.628 23.9996 96.4441 23.9996H92.7705C92.5865 23.9996 92.4373 23.8504 92.4373 23.6664Z" fill="white"/>
<path d="M173.733 15.6502C173.523 12.2523 174.95 8.47542 177.889 5.53603C184.281 -0.855361 197.591 0.040504 197.667 0.045652C197.63 0.0983981 187.9 14.2064 176.369 15.5259C175.478 15.6279 174.597 15.668 173.733 15.6502Z" fill="#03CA9B"/>
<path d="M175.083 19.9945C175.412 20.5195 175.801 21.0111 176.251 21.4612C180.197 25.4066 187.327 24.6733 192.177 19.8234C198.586 13.4138 197.667 0.045652 197.667 0.045652C197.631 0.124864 190.656 15.76 179.571 19.1704C178.066 19.6333 176.558 19.903 175.083 19.9945Z" fill="#03CA9B"/>
</svg>